<svg xmlns="http://www.w3.org/2000/svg">
  <symbol id="twitter-icon" viewBox="0 0 17.5 14.7">
    <path d="M11.3.2c1.7-.5 3 .2 3.7 1.1l2-.7c0 .9-.5 1.5-.8 1.7.7.2 1.3-.4 1.3-.4-.2 1-1 1.7-1.6 2-.3 6.5-3.3 10.9-10.4 10.8H5c-.4 0-4.2-.5-5-1.9 2.3.2 4-.4 4.8-1.1-1-.3-2.7-.5-3-3C2 9 2.3 9 3 9 1.8 8.1.4 7.4.5 5.2a2 2 0 001.3.5c-.7-.3-2-3.3-.9-4.9 1.9 1.9 3.9 3.6 7.4 3.7.2-2.2 1.2-3.7 3-4.3z" />
  </symbol>
  <symbol id="facebook-icon" viewBox="0 0 8.7 18.9">
    <path d="M6.3 3.4h2.4V0H5.8C2.7.2 1.5 2.4 1.9 6.1H0v3.5h2V19h3.8V9.6h2.9V6.1h-3c0-1 0-2.4.6-2.7z" />
  </symbol>
  <symbol id="youtube-icon" viewBox="0 0 20 14">
    <path d="M17.1 0H2.8A2.8 2.8 0 000 2.8v8.4C0 12.7 1.3 14 2.8 14h14.3c1.6 0 2.9-1.3 2.9-2.8V2.8C20 1.3 18.7 0 17 0zm-10 10.4V3.6L13.7 7 7 10.4z" />
  </symbol>
  <symbol id="video-fullscreen" viewBox="0 0 20 20">
    <path d="M0 0v6h3V3h3V0H3zM3 14H0v6h6v-3H3zM17 0h-3v3h3v3h3V0zM17 17h-3v3h6v-6h-3z" />
  </symbol>
  <symbol id="video-replay" viewBox="0 0 16 20">
    <path d="M8 4V0L3 5l5 5V6a6 6 0 11-6 6H0a8 8 0 108-8z" />
  </symbol>
  <symbol id="video-subtitles" viewBox="0 0 32 20">
    <path d="M29 0H3a3 3 0 00-3 3v14a3 3 0 003 3h26a3 3 0 003-3V3a3 3 0 00-3-3zM14.4 15.9l-1.7.1a6 6 0 01-2-.3c-.6-.2-1.1-.6-1.6-1s-.8-1.1-1.1-2c-.3-.7-.4-1.6-.4-2.7s.1-2 .4-2.9c.3-.7.7-1.3 1.2-1.8s1.1-.8 1.7-1c.6-.2 1.3-.3 1.9-.3a9 9 0 012.8.4l-.5 2c-.2-.2-.5-.3-.9-.3L13 6c-1 0-1.7.3-2.2 1-.6.6-.9 1.6-.9 3l.2 1.6.6 1.3 1 .8c.4.2 1 .3 1.4.3l1.3-.1.9-.4.5 1.8c-.4.3-.9.4-1.4.6zm8.7 0l-1.7.1a6 6 0 01-2-.3c-.6-.2-1.1-.6-1.6-1s-.9-1.1-1.1-2c-.3-.7-.5-1.6-.5-2.7s.2-2 .5-2.9c.3-.7.7-1.3 1.2-1.8s1.1-.8 1.7-1C20.2 4 21 4 21.5 4a9 9 0 012.8.4l-.5 2c-.2-.2-.5-.3-.9-.3L21.7 6c-1 0-1.7.3-2.2 1-.6.6-.9 1.6-.9 3l.2 1.6.6 1.3 1 .8c.4.2 1 .3 1.4.3l1.3-.1.9-.4.4 1.8c-.3.3-.8.4-1.3.6z" />
  </symbol>
  <symbol id="htmlacademy-logo" viewBox="0 0 26.9 34.1">
    <path d="M13.6 0h-.1L0 1.4v24.7l13.5 8 13.4-8V1.4L13.6 0zM25 12.1L13.5 5.3h-.2L2 12.1v-9L13.5 2 25 3.1v9zM13.4 6.8L25 13.5l-4.5 2.6-7-4.2v1.4l5.8 3.5-.8.6-5-3v1.4l3.8 2.3-.8.5-3-1.8v1.4l1.8 1-1.8 1.2L2 13.6l11.4-6.8zM1.9 15L13.3 22v1l-7.9-4.7v1.4l8 4.8v1.1l-8-4.7v1.4l8 4.8 8.2-4.8V17l3.4-2v10l-11.5 6.9-11.6-7v-9.8z"/>
  </symbol>
</svg>
